<?xml version="1.0" standalone="no"?>
<!DOCTYPE svg PUBLIC "-//W3C//DTD SVG 20010904//EN"
 "http://www.w3.org/TR/2001/REC-SVG-20010904/DTD/svg10.dtd">
<svg version="1.0" xmlns="http://www.w3.org/2000/svg"
 width="300.000000pt" height="300.000000pt" viewBox="0 0 300.000000 300.000000"
 preserveAspectRatio="xMidYMid meet">
<metadata>
Created by potrace 1.11, written by Peter Selinger 2001-2013
</metadata>
<g transform="translate(0.000000,300.000000) scale(0.100000,-0.100000)"
fill="#000000" stroke="none">
<path d="M1647 2882 c-94 -30 -167 -123 -162 -205 2 -22 -1 -27 -14 -21 -144
59 -300 13 -361 -106 -20 -39 -20 -107 -2 -153 7 -16 12 -29 12 -30 0 -1 -26
-1 -57 -1 -191 4 -314 -145 -242 -293 12 -24 32 -51 45 -60 35 -23 30 -30 -23
-31 -97 -2 -192 -74 -211 -160 -15 -64 22 -148 79 -180 38 -22 37 -28 -8 -37
-161 -30 -222 -190 -111 -290 21 -19 38 -39 38 -44 0 -5 -15 -12 -33 -15 -18
-3 -49 -20 -70 -37 -88 -72 -93 -171 -14 -250 l34 -34 -37 -1 c-71 -2 -118
-61 -100 -125 l9 -32 -23 22 c-12 12 -37 23 -55 26 -44 5 -93 -38 -95 -83 -1
-33 -9 -41 -22 -21 -13 22 -65 46 -90 41 -14 -2 -37 -20 -52 -38 -15 -19 -32
-34 -38 -34 -19 0 -44 -35 -44 -62 0 -108 250 -250 535 -303 39 -7 73 -11 77
-9 4 3 10 -2 15 -10 4 -7 25 -25 45 -38 20 -14 43 -32 52 -40 11 -11 46 -18
118 -22 256 -16 248 -15 352 -67 65 -32 102 -38 93 -15 -5 13 -1 13 34 1 34
-12 39 -12 39 1 0 11 4 12 19 4 28 -15 32 15 8 64 l-18 38 58 -6 c32 -3 83 -9
113 -12 95 -10 470 -11 580 -2 268 24 567 0 622 -49 19 -17 107 -45 109 -35 1
4 1 11 0 16 -1 5 6 6 15 2 40 -15 64 -18 64 -6 0 7 8 9 20 5 15 -5 20 -2 20
11 0 64 -62 126 -139 139 l-38 6 14 42 c17 48 20 145 8 232 -11 74 -11 136 -1
195 5 25 9 90 10 145 2 55 8 110 14 122 16 30 15 53 -4 74 -9 10 -18 43 -21
73 l-5 56 49 44 c103 93 145 218 139 416 -4 137 -24 234 -75 359 -152 366
-526 657 -895 695 -31 3 -46 12 -77 49 -21 24 -59 54 -85 66 -60 29 -153 34
-217 13z m-1206 -2129 c13 -16 12 -17 -3 -4 -10 7 -18 15 -18 17 0 8 8 3 21
-13z"/>
</g>
</svg>
