<?xml version="1.0" encoding="utf-8"?>
<!-- Generator: Adobe Illustrator 21.1.0, SVG Export Plug-In . SVG Version: 6.00 Build 0)  -->
<svg version="1.1" id="Layer_1" xmlns="http://www.w3.org/2000/svg" xmlns:xlink="http://www.w3.org/1999/xlink" x="0px" y="0px"
	 viewBox="0 0 300 300" style="enable-background:new 0 0 300 300;" xml:space="preserve">
<style type="text/css">
	.st0{fill:#F9EC31;}
	.st1{fill:#8BC53F;}
	.st2{fill:#F5A9CA;}
	.st3{fill:#FFFFFF;}
	.st4{fill:#231F20;}
</style>
<g>
	<ellipse class="st0" cx="173.9" cy="31.5" rx="25.4" ry="21.1"/>
	<ellipse class="st0" cx="134.6" cy="52.9" rx="25.4" ry="21.1"/>
	<ellipse class="st0" cx="105.3" cy="84.3" rx="25.4" ry="21.1"/>
	<ellipse class="st0" cx="86.1" cy="121.1" rx="23.2" ry="19.3"/>
	<ellipse class="st0" cx="75" cy="156.9" rx="21.4" ry="17.8"/>
	<ellipse class="st0" cx="67.1" cy="191.2" rx="21.4" ry="17.8"/>
	
		<ellipse transform="matrix(0.3826 -0.9239 0.9239 0.3826 -168.1398 183.9443)" class="st0" cx="53.6" cy="217.8" rx="11" ry="13.2"/>
	<path class="st0" d="M37.5,240.2c-5.1,1.5-10.8-2.3-12.6-8.5c-1.8-6.2,0.9-12.4,6.1-13.9c5.1-1.5,10.8,2.3,12.6,8.5
		C45.4,232.5,42.7,238.7,37.5,240.2z"/>
	
		<ellipse transform="matrix(0.9607 -0.2776 0.2776 0.9607 -64.3824 13.4979)" class="st0" cx="15.5" cy="234.1" rx="8.6" ry="10.4"/>
	<path class="st1" d="M0,236.8c0,15.2,42.9,31.8,65,31.8c22.1,0,46.4,2,46.4-13.2c0-15.2-31.9-58.4-46.4-41.8
		C42.9,239,0,221.6,0,236.8z"/>
	<path class="st1" d="M282.5,253.8c0,26.6-18.1,24.5-36.7,24.5c-18.6,0-37-12.5-37-39.1c0-26.6,18.8-46.6,37.4-46.6
		C264.8,192.5,282.5,227.2,282.5,253.8z"/>
	<path class="st1" d="M251.9,271.1c0,0,46.1-9.7,45.1,15c0,0-4.7-1.1-7-4.1c0,0,3.1,1.2,2.9,5c0,0-7.7-1.3-8.7-3.6
		c0,0,1.5,2.9,1.3,4.2c0,0-6.2-0.3-12.8-5.2c-6.7-4.9-36.5-4.2-41.4-5.3C226.2,275.9,226.1,269.7,251.9,271.1z"/>
	<path class="st1" d="M280.3,173.7c3.7,35,10.4,96.6-56.4,103.8c-66.8,7.1-166.6-5.7-170.3-40.7c-3.7-35,38.2-194.3,105-201.4
		C225.4,28.3,276.6,138.7,280.3,173.7z"/>
	<path class="st0" d="M223.9,277.5c34.8-3.7,49.7-22.2,55.4-44c-3.2-64-31.9-98.4-69.3-98.4c-39.6,0-92.1,37.7-92.1,109.3
		c0,10.2,0.6,20,1.9,29.5C152.6,279.8,192,280.9,223.9,277.5z"/>
	<path class="st1" d="M125.7,255.2c0,26.6-18.1,24.5-36.7,24.5c-18.6,0-37-12.5-37-39.1C52,214,70.8,194,89.4,194
		C108,194,125.7,228.6,125.7,255.2z"/>
	<path class="st1" d="M95.1,272.5c0,0,46.1-9.7,45.1,15c0,0-4.7-1.1-7-4.2c0,0,3.1,1.2,2.9,5c0,0-7.7-1.3-8.7-3.6
		c0,0,1.5,2.9,1.3,4.2c0,0-6.2-0.3-12.8-5.2c-6.7-4.9-36.5-4.2-41.4-5.3C69.4,277.3,69.4,271.1,95.1,272.5z"/>
	<path class="st1" d="M115.3,187.9c0,0,26.8-1.1,31.1,15c4.3,16.1-2.7,16.9-2.7,16.9l-4.2-8.7l-3.5,9.2l-6-7.9l-0.8,9.4
		c0,0-11.7-9.3-11.7-17.9c0-8.6-13.6-5.4-17.9-3.9C95.3,201.5,86.8,186.8,115.3,187.9z"/>
	<path class="st1" d="M268.5,185.2c0,0-21.6-1.1-25.1,15c-3.5,16.1,2.2,16.9,2.2,16.9l3.3-8.7l2.8,9.2l4.9-7.9l0.6,9.4
		c0,0,9.5-9.3,9.5-17.9c0-8.6,11-5.4,14.4-3.9C284.7,198.8,291.6,184.2,268.5,185.2z"/>
	<path class="st2" d="M263.4,132.8c0,22.3-29.6,20-54.9,20c-25.4,0-54.9,5.7-54.9-16.6c0-22.3-6.1-60.8,54.9-64.3
		C268.9,68.5,263.4,110.4,263.4,132.8z"/>
	<path class="st3" d="M231.4,70.6c0.7,10.3,3.7,18.3,7.2,18.2c3.5-0.1,6.1-8.2,6.1-18.6L231.4,70.6z"/>
	<path class="st3" d="M175.6,70.6c0.7,10.3,3.7,18.3,7.2,18.2c3.5-0.1,6.1-8.2,6.1-18.6L175.6,70.6z"/>
	<path class="st1" d="M193.6,24.3c-51.9,0-111.3,52.2-111.3,112c0,59.7,53.8,51.8,105.8,51.8c51.9,0,112,5.1,112-54.6
		C300,73.7,245.5,24.3,193.6,24.3z M263.4,132.8c0,22.3-29.6,20-54.9,20c-25.4,0-54.9,5.7-54.9-16.6c0-22.3-6.1-60.8,54.9-64.3
		C268.9,68.5,263.4,110.4,263.4,132.8z"/>
	<circle class="st4" cx="185.3" cy="47.8" r="4.8"/>
	<circle class="st4" cx="222.6" cy="47.8" r="4.8"/>
</g>
</svg>
